<svg width="213" height="70" viewBox="0 0 213 70" fill="none" xmlns="http://www.w3.org/2000/svg">
<path d="M0 34.9882V69.9673H1.27656H2.55312V34.9882V0.00901794H1.27656H0V34.9882Z" fill="black"/>
<path d="M3.55884 34.9882V69.9673H4.17778H4.79671V34.9882V0.00901794H4.17778H3.55884V34.9882Z" fill="black"/>
<path d="M6.18945 34.9882V69.9673H8.54915H10.9088V34.9882V0.00901794H8.54915H6.18945V34.9882Z" fill="black"/>
<path d="M12.7655 34.9882V69.9673H13.3844H14.0034V34.9882V0.00901794H13.3844H12.7655V34.9882Z" fill="black"/>
<path d="M17.0981 34.9882V69.9673H19.4965H21.8949V34.9882V0.00901794H19.4965H17.0981V34.9882Z" fill="black"/>
<path d="M23.2101 34.9882V69.9673H24.448H25.6858V34.9882V0.00901794H24.448H23.2101V34.9882Z" fill="black"/>
<path d="M28.0844 34.9882V69.9673H28.7033H29.3222V34.9882V0.00901794H28.7033H28.0844V34.9882Z" fill="black"/>
<path d="M30.9469 34.9882V69.9673H31.5658H32.1848V34.9882V0.00901794H31.5658H30.9469V34.9882Z" fill="black"/>
<path d="M33.8094 34.9882V69.9673H34.4284H35.0473V34.9882V0.00901794H34.4284H33.8094V34.9882Z" fill="black"/>
<path d="M37.059 34.9882V69.9673H39.4573H41.8557L41.8403 35.0062L41.817 0.0541534L39.4419 0.0270767L37.059 0.00901794V34.9882Z" fill="black"/>
<path d="M42.7065 34.9882V69.9673H43.9444H45.1823V34.9882V0.00901794H43.9444H42.7065V34.9882Z" fill="black"/>
<path d="M46.2656 34.9882V69.9673H46.8846H47.5035V34.9882V0.00901794H46.8846H46.2656V34.9882Z" fill="black"/>
<path d="M48.8187 34.9882V69.9673H51.2171H53.6155V34.9882V0.00901794H51.2171H48.8187V34.9882Z" fill="black"/>
<path d="M55.3948 34.9882V69.9673H56.0524H56.71L56.6945 35.0062L56.6713 0.0541611L56.0369 0.0270844L55.3948 0V34.9882Z" fill="black"/>
<path d="M59.8049 34.9882V69.9673H62.1646H64.5243V34.9882V0.00901794H62.1646H59.8049V34.9882Z" fill="black"/>
<path d="M65.8395 34.9882V69.9673H67.116H68.3926V34.9882V0.00901794H67.116H65.8395V34.9882Z" fill="black"/>
<path d="M70.7136 34.9882V69.9673H71.3326H71.9515V34.9882V0.00901794H71.3326H70.7136V34.9882Z" fill="black"/>
<path d="M73.5762 34.9882V69.9673H74.2338H74.8914L74.8759 35.0062L74.8527 0.0541611L74.2183 0.0270844L73.5762 0V34.9882Z" fill="black"/>
<path d="M76.4929 0.0722046C76.4619 0.0992889 76.4387 15.8422 76.4387 35.0513V69.9673H77.0963H77.754V34.9882V0.00901794H77.1505C76.8178 0.00901794 76.5161 0.0361023 76.4929 0.0722046Z" fill="black"/>
<path d="M79.7655 34.9882V69.9673H82.1252H84.4849V34.9882V0.00901794H82.1252H79.7655V34.9882Z" fill="black"/>
<path d="M85.3359 34.9882V69.9673H86.6125H87.8891V34.9882V0.00901794H86.6125H85.3359V34.9882Z" fill="black"/>
<path d="M88.8949 34.9882V69.9673H89.5138H90.1328V34.9882V0.00901794H89.5138H88.8949V34.9882Z" fill="black"/>
<path d="M91.5254 34.9882V69.9673H93.8851H96.2448V34.9882V0.00901794H93.8851H91.5254V34.9882Z" fill="black"/>
<path d="M98.1016 34.9882V69.9673H98.7205H99.3394V34.9882V0.00901794H98.7205H98.1016V34.9882Z" fill="black"/>
<path d="M102.434 34.9882V69.9673H104.832H107.231V34.9882V0.00901794H104.832H102.434V34.9882Z" fill="black"/>
<path d="M108.546 34.9882V69.9673H109.784H111.022V34.9882V0.00901794H109.784H108.546V34.9882Z" fill="black"/>
<path d="M113.42 34.9882V69.9673H114.039H114.658V34.9882V0.00901794H114.039H113.42V34.9882Z" fill="black"/>
<path d="M116.283 34.9882V69.9673H116.902H117.521V34.9882V0.00901794H116.902H116.283V34.9882Z" fill="black"/>
<path d="M119.145 34.9882V69.9673H119.764H120.383V34.9882V0.00901794H119.764H119.145V34.9882Z" fill="black"/>
<path d="M122.395 34.9882V69.9673H124.793H127.192V34.9882V0.00901794H124.793H122.395V34.9882Z" fill="black"/>
<path d="M128.043 34.9882V69.9673H129.319H130.596L130.58 35.0062L130.557 0.0541534L129.304 0.0270767L128.043 0.00901794V34.9882Z" fill="black"/>
<path d="M131.602 34.9882V69.9673H132.22H132.839V34.9882V0.00901794H132.22H131.602V34.9882Z" fill="black"/>
<path d="M134.155 34.9882V69.9673H136.553H138.951V34.9882V0.00901794H136.553H134.155V34.9882Z" fill="black"/>
<path d="M140.731 34.9882V69.9673H141.389H142.046L142.031 35.0062L142.008 0.0541611L141.373 0.0270844L140.731 0V34.9882Z" fill="black"/>
<path d="M145.141 34.9882V69.9673H147.501H149.86V34.9882V0.00901794H147.501H145.141V34.9882Z" fill="black"/>
<path d="M151.175 34.9882V69.9673H152.452H153.728V34.9882V0.00901794H152.452H151.175V34.9882Z" fill="black"/>
<path d="M156.05 34.9882V69.9673H156.668H157.287V34.9882V0.00901794H156.668H156.05V34.9882Z" fill="black"/>
<path d="M158.912 34.9882V69.9673H159.57H160.227L160.212 35.0062L160.189 0.0541611L159.554 0.0270844L158.912 0V34.9882Z" fill="black"/>
<path d="M161.829 0.0722046C161.798 0.0992889 161.775 15.8422 161.775 35.0513V69.9673H162.432H163.09V34.9882V0.00901794H162.486C162.154 0.00901794 161.852 0.0361023 161.829 0.0722046Z" fill="black"/>
<path d="M165.102 34.9882V69.9673H167.461H169.821V34.9882V0.00901794H167.461H165.102V34.9882Z" fill="black"/>
<path d="M170.672 34.9882V69.9673H171.949H173.225V34.9882V0.00901794H171.949H170.672V34.9882Z" fill="black"/>
<path d="M174.231 34.9882V69.9673H174.85H175.469V34.9882V0.00901794H174.85H174.231V34.9882Z" fill="black"/>
<path d="M176.861 34.9882V69.9673H179.221H181.581V34.9882V0.00901794H179.221H176.861V34.9882Z" fill="black"/>
<path d="M183.438 34.9882V69.9673H184.057H184.675V34.9882V0.00901794H184.057H183.438V34.9882Z" fill="black"/>
<path d="M187.824 0.0722046C187.793 0.0992889 187.77 15.8422 187.77 35.0513V69.9673H190.169H192.567V34.9882V0.00901794H190.223C188.931 0.00901794 187.848 0.0361023 187.824 0.0722046Z" fill="black"/>
<path d="M193.882 34.9882V69.9673H195.12H196.358V34.9882V0.00901794H195.12H193.882V34.9882Z" fill="black"/>
<path d="M198.756 34.9882V69.9673H199.375H199.994V34.9882V0.00901794H199.375H198.756V34.9882Z" fill="black"/>
<path d="M201.619 34.9882V69.9673H202.238H202.857V34.9882V0.00901794H202.238H201.619V34.9882Z" fill="black"/>
<path d="M204.481 34.9882V69.9673H205.1H205.719V34.9882V0.00901794H205.1H204.481V34.9882Z" fill="black"/>
<path d="M207.731 34.9882V69.9673H210.129H212.528V34.9882V0.00901794H210.129H207.731V34.9882Z" fill="black"/>
</svg>
