<svg width="627" height="430" viewBox="0 0 627 430" fill="none" xmlns="http://www.w3.org/2000/svg">
<path d="M355.521 402.122C342.01 388.168 335.826 380.669 310.708 347.541C294.724 326.373 281.118 308.528 280.547 307.863C279.691 306.914 278.644 310.711 276.266 324.475C274.553 334.347 272.746 343.365 272.27 344.504C271.414 346.782 271.318 346.782 268.749 345.073C267.322 344.124 259.901 337.954 252.194 331.214C244.488 324.57 237.828 319.064 237.352 319.064C236.876 319.064 234.212 333.018 231.358 350.104C228.503 367.095 225.839 381.618 225.269 382.283C224.793 383.042 223.841 383.232 223.271 382.852C222.605 382.473 212.044 366.81 199.58 348.016C187.211 329.221 176.65 313.464 176.174 312.989C174.652 311.376 171.036 315.932 157.145 336.72L143.635 357.033L140.019 357.033C138.021 357.033 136.119 356.559 135.738 355.894C135.357 355.23 132.979 344.883 130.6 332.828C128.126 320.868 125.748 311.091 125.272 311.186C124.796 311.281 113.855 316.027 101.105 321.817C88.261 327.607 77.2243 332.164 76.5583 331.879C74.37 331.025 76.1777 322.576 81.1252 310.616C83.6941 304.636 85.597 299.415 85.4067 299.036C85.1213 298.751 79.2223 297.232 72.0865 295.808C64.9507 294.289 58.3858 292.581 57.5295 291.916C56.1023 290.872 58.1955 287.835 75.702 264.768C86.5484 250.435 95.3968 238.38 95.3968 238C95.3968 237.621 77.3194 237.431 55.1508 237.621L15 237.905L15 235.532C15 233.349 18.4252 231.451 55.6266 212.751C77.9854 201.55 96.5386 192.058 96.824 191.678C97.2046 191.298 91.6862 172.883 84.4552 150.671C77.3194 128.459 71.8011 109.76 72.0865 109.19C72.4671 108.621 73.3234 108.431 73.9894 108.715C74.6554 108.905 86.263 116.784 99.7734 126.086C119.944 140.04 147.346 156.746 150.01 156.746C150.295 156.746 150.295 152.57 150.01 147.349C149.534 140.325 149.629 137.857 150.58 137.287C151.342 136.813 155.813 138.521 162.093 141.654C167.802 144.406 172.559 146.495 172.844 146.21C173.034 146.02 172.559 129.504 171.798 109.475C170.656 82.4219 170.561 72.8347 171.322 72.0753C172.178 71.221 176.46 74.923 187.972 86.3137C196.44 94.7618 203.671 101.691 204.051 101.691C205.288 101.691 206.906 88.3071 210.046 51.9516C211.758 30.594 213.661 12.7485 214.042 12.3689C214.517 11.8942 215.278 11.8942 215.849 12.2739C218.704 14.0775 234.307 40.2761 245.154 61.349C256.571 83.466 276.837 119.632 279.501 122.384C281.213 124.283 285.875 113.177 299.576 74.6382C306.141 55.8435 312.04 39.8964 312.516 39.232C313.087 38.6624 314.514 38.0929 315.751 38.0929C317.844 38.0929 319.937 41.8898 336.302 74.6382C346.387 94.7618 354.95 111.183 355.331 111.183C355.616 111.183 358.09 106.912 360.754 101.691C363.418 96.5653 365.987 92.104 366.462 91.8192C367.89 90.9649 369.031 93.1481 374.169 106.153C376.833 113.082 379.497 119.062 380.068 119.347C381.876 120.486 383.018 117.828 390.249 96.7552C394.149 85.6492 397.765 76.062 398.336 75.3976C399.858 73.6889 400.81 74.6382 407.565 84.6051C412.798 92.3887 414.13 95.3313 417.46 106.247C419.553 113.177 421.646 118.682 422.122 118.492C422.598 118.303 424.5 113.936 426.403 108.81C428.877 102.071 432.683 94.9516 439.343 84.6051C448.952 69.4174 450.189 67.9936 451.521 69.3225C451.997 69.7971 454.281 80.3335 456.564 92.8633C460.75 115.265 461.987 118.967 464.937 117.164C465.508 116.784 480.35 104.919 497.952 90.6801C515.553 76.5366 530.872 64.3865 532.013 63.817C533.631 62.9627 534.106 62.9627 534.487 63.9119C534.772 64.5763 532.87 80.7132 530.301 99.7927C526.4 128.175 525.734 134.819 526.685 136.718C527.637 138.711 533.25 140.799 569.405 152.855C592.24 160.448 611.459 167.188 612.125 167.852C613.837 169.561 611.364 170.7 577.778 183.799C560.747 190.444 546.475 196.234 545.999 196.709C545.524 197.089 550.566 204.682 557.227 213.795C563.887 222.813 569.595 230.691 569.881 231.356C570.166 232.115 569.405 233.064 568.073 233.634C566.931 234.108 551.137 237.621 533.06 241.323C514.983 245.119 499.855 248.442 499.379 248.916C498.903 249.296 503.09 271.223 509.179 300.554C515.078 328.462 519.549 351.813 519.264 352.382C518.883 352.952 518.122 353.142 517.456 352.952C516.885 352.667 493.956 336.91 466.649 317.735C439.248 298.656 416.699 282.994 416.603 282.994C416.413 282.994 420.504 299.89 425.737 320.678C430.875 341.371 434.966 358.837 434.681 359.596C433.825 361.685 432.397 360.451 411.751 342.32L392.722 325.519L390.058 334.442C387.014 344.693 386.252 346.117 384.445 346.022C383.684 345.927 378.641 342.795 373.313 339.093C367.89 335.296 363.323 332.448 363.037 332.733C362.752 332.923 365.035 351.813 367.985 374.689C371.886 405.159 373.027 416.455 372.266 417.214C371.505 417.974 366.938 413.892 355.521 402.122Z" fill="#FF0054"/>
<path d="M189.377 183.703L205.501 183.325C210.747 183.202 214.715 184.518 217.405 187.271C220.094 190.025 221.503 194.121 221.631 199.56L222.43 233.534C222.558 238.973 221.344 243.131 218.787 246.007C216.23 248.884 212.328 250.384 207.081 250.506L190.958 250.884L189.377 183.703ZM206.664 240.914C208.391 240.873 209.691 240.331 210.562 239.286C211.498 238.24 211.939 236.565 211.885 234.262L211.063 199.327C211.008 197.024 210.489 195.372 209.506 194.37C208.586 193.368 207.262 192.886 205.535 192.927L200.16 193.053L201.289 241.04L206.664 240.914ZM226.927 182.823L242.571 182.457C248.009 182.33 252.006 183.516 254.562 186.017C257.116 188.454 258.454 192.296 258.578 197.542L258.675 201.669C258.839 208.643 256.639 213.112 252.076 215.075L252.081 215.267C254.658 215.975 256.487 217.501 257.566 219.844C258.709 222.186 259.328 225.34 259.421 229.307L259.699 241.112C259.744 243.031 259.845 244.598 260.001 245.81C260.157 246.959 260.504 248.103 261.043 249.243L250.293 249.494C249.884 248.416 249.604 247.398 249.453 246.441C249.303 245.485 249.198 243.759 249.14 241.263L248.851 228.979C248.778 225.907 248.216 223.776 247.164 222.584C246.175 221.391 244.465 220.823 242.034 220.88L238.387 220.965L239.065 249.757L228.507 250.005L226.927 182.823ZM242 211.278C244.112 211.229 245.666 210.648 246.665 209.536C247.727 208.423 248.228 206.587 248.167 204.028L248.046 198.845C247.988 196.414 247.499 194.665 246.578 193.598C245.72 192.53 244.364 192.018 242.508 192.061L237.71 192.173L238.161 211.368L242 211.278ZM281.058 249.734C275.876 249.856 271.874 248.477 269.054 245.598C266.233 242.719 264.76 238.593 264.633 233.218L263.802 197.9C263.676 192.526 264.954 188.334 267.636 185.327C270.318 182.319 274.25 180.755 279.433 180.633C284.615 180.512 288.617 181.891 291.437 184.769C294.258 187.648 295.731 191.775 295.858 197.149L296.689 232.468C296.815 237.842 295.537 242.033 292.855 245.041C290.173 248.048 286.241 249.613 281.058 249.734ZM280.833 240.137C284.48 240.051 286.251 237.801 286.147 233.387L285.285 196.725C285.181 192.31 283.305 190.145 279.658 190.231C276.011 190.316 274.24 192.566 274.344 196.981L275.206 233.643C275.31 238.058 277.186 240.222 280.833 240.137ZM301.183 181.084L316.73 180.72C321.977 180.597 325.945 181.913 328.635 184.666C331.324 187.42 332.733 191.516 332.861 196.955L333.017 203.577C333.145 209.016 331.93 213.173 329.373 216.05C326.816 218.926 322.914 220.426 317.668 220.549L312.677 220.666L313.32 248.018L302.763 248.266L301.183 181.084ZM317.442 210.952C319.169 210.911 320.438 210.401 321.247 209.422C322.12 208.442 322.529 206.799 322.475 204.496L322.288 196.53C322.234 194.227 321.747 192.606 320.829 191.667C319.975 190.727 318.684 190.277 316.956 190.317L311.966 190.434L312.451 211.069L317.442 210.952ZM350.695 179.925L361.253 179.677L362.833 246.859L352.276 247.106L350.695 179.925ZM367.719 179.526L380.964 179.216L392.179 219.188L392.371 219.184L391.425 178.971L400.83 178.75L402.411 245.932L391.566 246.186L377.744 197.44L377.552 197.445L378.706 246.487L369.3 246.707L367.719 179.526ZM422.692 206.278L422.032 178.254L432.589 178.007L433.249 206.031L432.409 227.465L424.539 227.649L422.692 206.278ZM423.566 235.258L433.739 235.019L433.978 245.193L423.805 245.431L423.566 235.258Z" fill="white"/>
</svg>
