<svg width="598" height="406" viewBox="0 0 598 406" fill="none" xmlns="http://www.w3.org/2000/svg">
<path d="M340.521 390.122C327.01 376.168 320.826 368.669 295.708 335.541C279.724 314.373 266.118 296.528 265.547 295.863C264.691 294.914 263.644 298.711 261.266 312.475C259.553 322.347 257.746 331.364 257.27 332.504C256.414 334.782 256.318 334.782 253.749 333.073C252.322 332.124 244.901 325.954 237.194 319.214C229.488 312.57 222.828 307.064 222.352 307.064C221.876 307.064 219.212 321.018 216.358 338.104C213.503 355.095 210.839 369.618 210.269 370.283C209.793 371.042 208.841 371.232 208.271 370.852C207.605 370.473 197.044 354.81 184.58 336.016C172.211 317.221 161.65 301.464 161.174 300.989C159.652 299.376 156.036 303.932 142.145 324.72L128.635 345.033L125.019 345.033C123.021 345.033 121.119 344.559 120.738 343.894C120.357 343.23 117.979 332.883 115.6 320.828C113.126 308.868 110.748 299.091 110.272 299.186C109.796 299.281 98.8548 304.027 86.1055 309.817C73.261 315.607 62.2243 320.164 61.5583 319.879C59.37 319.025 61.1777 310.576 66.1252 298.616C68.6941 292.636 70.597 287.415 70.4067 287.036C70.1213 286.751 64.2223 285.232 57.0865 283.808C49.9507 282.289 43.3858 280.581 42.5295 279.916C41.1023 278.872 43.1955 275.835 60.702 252.768C71.5484 238.435 80.3968 226.38 80.3968 226C80.3968 225.621 62.3194 225.431 40.1508 225.621L1.97493e-05 225.905L1.95418e-05 223.532C1.93509e-05 221.349 3.42521 219.451 40.6266 200.751C62.9854 189.55 81.5386 180.058 81.824 179.678C82.2046 179.298 76.6862 160.883 69.4552 138.671C62.3194 116.459 56.8011 97.7596 57.0865 97.19C57.4671 96.6205 58.3234 96.4306 58.9894 96.7154C59.6554 96.9053 71.263 104.784 84.7734 114.086C104.944 128.04 132.346 144.746 135.01 144.746C135.295 144.746 135.295 140.57 135.01 135.349C134.534 128.325 134.629 125.857 135.58 125.287C136.342 124.813 140.813 126.521 147.093 129.654C152.802 132.406 157.559 134.495 157.844 134.21C158.034 134.02 157.559 117.503 156.798 97.4748C155.656 70.4218 155.561 60.8346 156.322 60.0752C157.178 59.2209 161.46 62.9229 172.972 74.3136C181.44 82.7618 188.671 89.6911 189.051 89.6911C190.288 89.6911 191.906 76.307 195.046 39.9516C196.758 18.594 198.661 0.74849 199.042 0.368799C199.517 -0.105815 200.278 -0.105815 200.849 0.273876C203.704 2.07741 219.307 28.2761 230.154 49.3489C241.571 71.4659 261.837 107.632 264.501 110.384C266.213 112.283 270.875 101.177 284.576 62.6381C291.141 43.8434 297.04 27.8964 297.516 27.2319C298.087 26.6624 299.514 26.0929 300.751 26.0929C302.844 26.0929 304.937 29.8898 321.302 62.6381C331.387 82.7617 339.95 99.1834 340.331 99.1834C340.616 99.1834 343.09 94.9119 345.754 89.6911C348.418 84.5653 350.987 80.1039 351.462 79.8191C352.89 78.9648 354.031 81.1481 359.169 94.1525C361.833 101.082 364.497 107.062 365.068 107.347C366.876 108.486 368.018 105.828 375.249 84.7551C379.149 73.6492 382.765 64.062 383.336 63.3975C384.858 61.6889 385.81 62.6381 392.565 72.605C397.798 80.3887 399.13 83.3313 402.46 94.2474C404.553 101.177 406.646 106.682 407.122 106.492C407.598 106.303 409.5 101.936 411.403 96.8103C413.877 90.0708 417.683 82.9516 424.343 72.605C433.952 57.4174 435.189 55.9935 436.521 57.3224C436.997 57.797 439.281 68.3335 441.564 80.8633C445.75 103.265 446.987 106.967 449.937 105.164C450.508 104.784 465.35 92.9185 482.952 78.68C500.553 64.5366 515.872 52.3864 517.013 51.8169C518.631 50.9626 519.106 50.9626 519.487 51.9118C519.772 52.5763 517.87 68.7132 515.301 87.7926C511.4 116.175 510.734 122.819 511.685 124.718C512.637 126.711 518.25 128.799 554.405 140.854C577.24 148.448 596.459 155.188 597.125 155.852C598.837 157.561 596.364 158.7 562.778 171.799C545.747 178.444 531.475 184.234 530.999 184.709C530.524 185.088 535.566 192.682 542.227 201.795C548.887 210.813 554.595 218.691 554.881 219.356C555.166 220.115 554.405 221.064 553.073 221.634C551.931 222.108 536.137 225.62 518.06 229.322C499.983 233.119 484.855 236.442 484.379 236.916C483.903 237.296 488.09 259.223 494.179 288.554C500.078 316.462 504.549 339.813 504.264 340.382C503.883 340.952 503.122 341.141 502.456 340.952C501.885 340.667 478.956 324.91 451.649 305.735C424.248 286.656 401.699 270.994 401.603 270.994C401.413 270.994 405.504 287.89 410.737 308.678C415.875 329.371 419.966 346.837 419.681 347.596C418.825 349.685 417.397 348.451 396.751 330.32L377.722 313.519L375.058 322.442C372.014 332.693 371.252 334.117 369.445 334.022C368.684 333.927 363.641 330.795 358.313 327.093C352.89 323.296 348.323 320.448 348.037 320.733C347.752 320.923 350.035 339.813 352.985 362.689C356.886 393.159 358.027 404.455 357.266 405.214C356.505 405.974 351.938 401.892 340.521 390.122Z" fill="#FF0054"/>
<path d="M187.814 238.72C182.695 238.788 178.804 237.399 176.142 234.553C173.479 231.644 172.112 227.47 172.04 222.03L171.989 218.19L181.972 218.059L182.033 222.667C182.091 227.019 183.943 229.17 187.591 229.122C189.383 229.099 190.72 228.569 191.602 227.534C192.548 226.433 193.005 224.699 192.974 222.331C192.936 219.515 192.264 217.06 190.956 214.965C189.647 212.806 187.245 210.245 183.749 207.283C179.347 203.501 176.261 200.085 174.493 197.036C172.724 193.923 171.813 190.414 171.761 186.511C171.691 181.199 172.981 177.086 175.63 174.171C178.279 171.192 182.163 169.669 187.283 169.601C192.338 169.535 196.165 170.957 198.764 173.867C201.426 176.712 202.793 180.855 202.865 186.294L202.902 189.078L192.919 189.209L192.873 185.753C192.843 183.449 192.373 181.792 191.463 180.779C190.553 179.703 189.234 179.177 187.506 179.199C183.986 179.245 182.255 181.412 182.312 185.7C182.344 188.132 183.014 190.395 184.322 192.49C185.693 194.584 188.127 197.113 191.623 200.075C196.089 203.857 199.175 207.304 200.881 210.418C202.586 213.532 203.467 217.201 203.523 221.424C203.595 226.928 202.275 231.17 199.563 234.15C196.914 237.129 192.998 238.652 187.814 238.72ZM207.46 170.296L218.02 170.158L218.91 237.352L208.35 237.49L207.46 170.296ZM240.365 238.03C235.246 238.097 231.323 236.709 228.597 233.864C225.87 230.956 224.471 226.782 224.399 221.342L223.931 186.017C223.859 180.578 225.148 176.401 227.797 173.485C230.446 170.506 234.33 168.983 239.45 168.916C244.569 168.849 248.492 170.269 251.219 173.178C253.945 176.022 255.344 180.164 255.416 185.604L255.492 191.363L245.509 191.494L245.424 185.063C245.366 180.647 243.513 178.463 239.865 178.511C236.217 178.559 234.423 180.791 234.481 185.207L234.968 221.971C235.026 226.323 236.878 228.475 240.526 228.427C244.174 228.379 245.969 226.179 245.911 221.828L245.737 208.677L240.457 208.746L240.33 199.147L255.593 198.947L255.884 220.929C255.956 226.368 254.668 230.577 252.019 233.556C249.369 236.472 245.485 237.963 240.365 238.03ZM260.545 169.599L273.791 169.425L284.595 209.51L284.787 209.508L284.255 169.287L293.662 169.164L294.552 236.358L283.705 236.5L270.384 187.615L270.192 187.618L270.842 236.669L261.435 236.793L260.545 169.599ZM330.265 236.849C325.146 236.916 321.223 235.527 318.497 232.683C315.77 229.775 314.371 225.601 314.299 220.161L313.62 168.902L324.179 168.763L324.868 220.79C324.899 223.094 325.369 224.752 326.278 225.764C327.252 226.776 328.602 227.27 330.33 227.247C332.058 227.224 333.363 226.695 334.245 225.66C335.192 224.623 335.65 222.953 335.619 220.649L334.93 168.622L345.105 168.488L345.784 219.747C345.856 225.187 344.568 229.396 341.919 232.375C339.269 235.29 335.385 236.782 330.265 236.849ZM351.186 168.408L366.736 168.204C371.984 168.135 375.938 169.491 378.599 172.272C381.26 175.054 382.627 179.164 382.699 184.604L382.787 191.227C382.859 196.666 381.601 200.811 379.015 203.662C376.428 206.512 372.511 207.971 367.264 208.04L362.272 208.106L362.635 235.463L352.076 235.602L351.186 168.408ZM367.137 198.441C368.865 198.418 370.138 197.922 370.957 196.951C371.841 195.979 372.267 194.341 372.236 192.038L372.131 184.07C372.1 181.766 371.631 180.141 370.722 179.192C369.877 178.243 368.591 177.78 366.863 177.803L361.872 177.869L362.145 198.507L367.137 198.441ZM401.943 195.776L401.571 167.746L412.131 167.607L412.502 195.637L411.441 217.061L403.57 217.164L401.943 195.776ZM402.519 224.763L412.694 224.629L412.829 234.804L402.653 234.938L402.519 224.763Z" fill="white"/>
</svg>
