<svg width="48" height="64" viewBox="0 0 48 64" fill="none" xmlns="http://www.w3.org/2000/svg">
<path d="M12.0042 63.6867C11.4458 63.6867 10.9573 63.479 10.5385 63.0637C10.1198 62.6483 9.91042 62.1638 9.91042 61.61C9.91042 61.0562 10.1198 60.5716 10.5385 60.1562C10.9573 59.7409 11.4458 59.5332 12.0042 59.5332C12.5625 59.5332 13.051 59.7409 13.4698 60.1562C13.8885 60.5716 14.0979 61.0562 14.0979 61.61C14.0979 62.1638 13.8885 62.6483 13.4698 63.0637C13.051 63.479 12.5625 63.6867 12.0042 63.6867ZM35.7333 63.6867C35.175 63.6867 34.6865 63.479 34.2677 63.0637C33.849 62.6483 33.6396 62.1638 33.6396 61.61C33.6396 61.0562 33.849 60.5716 34.2677 60.1562C34.6865 59.7409 35.175 59.5332 35.7333 59.5332C36.2917 59.5332 36.7802 59.7409 37.199 60.1562C37.6177 60.5716 37.8271 61.0562 37.8271 61.61C37.8271 62.1638 37.6177 62.6483 37.199 63.0637C36.7802 63.479 36.2917 63.6867 35.7333 63.6867ZM10.6083 58.1487C8.51458 58.1487 6.58368 57.6988 4.81563 56.7989C3.04757 55.8989 1.58194 54.6875 0.41875 53.1646C0.279167 52.9338 0.174479 52.7261 0.104688 52.5415C0.0348958 52.3569 0 52.1493 0 51.9185C0 51.3647 0.186111 50.8801 0.558333 50.4648C0.930556 50.0494 1.44236 49.8418 2.09375 49.8418C2.46597 49.8418 2.78004 49.911 3.03594 50.0494C3.29184 50.1879 3.53611 50.3956 3.76875 50.6725C4.32708 51.457 5.03663 52.1147 5.8974 52.6454C6.75816 53.1761 7.67708 53.5568 8.65417 53.7876L17.3781 43.3347L13.6792 31.8434C13.4465 31.0588 13.3767 30.2743 13.4698 29.4897C13.5628 28.7052 13.8188 27.9668 14.2375 27.2745L20.9375 16.6139L14.3771 16.6139L9.07292 25.0593L4.32708 22.1519L11.3063 11.0759L27.2188 11.0759C28.475 11.0759 29.487 11.4221 30.2547 12.1143C31.0224 12.8066 31.5458 13.4527 31.825 14.0526L33.2906 17.3754C34.2212 19.5906 35.7217 21.402 37.7922 22.8095C39.8627 24.2171 42.2007 24.9209 44.8063 24.9209L44.8063 30.4589C41.5493 30.4589 38.5715 29.6859 35.8729 28.1398C33.1743 26.5938 31.0108 24.5517 29.3823 22.0135L24.3573 29.9743L36.4313 37.3813V53.9953H37.2688C38.6181 53.9953 39.8743 53.6953 41.0375 53.0953C42.2007 52.4954 43.1778 51.6878 43.9688 50.6725C44.2014 50.3956 44.4457 50.1879 44.7016 50.0494C44.9575 49.911 45.2715 49.8418 45.6438 49.8418C46.2486 49.8418 46.7488 50.0494 47.1443 50.4648C47.5398 50.8801 47.7375 51.3647 47.7375 51.9185C47.7375 52.1493 47.7026 52.3569 47.6328 52.5415C47.563 52.7261 47.4583 52.9338 47.3188 53.1646C46.1556 54.6875 44.7132 55.8989 42.9917 56.7989C41.2701 57.6988 39.3625 58.1487 37.2688 58.1487L10.6083 58.1487ZM15.7729 53.9953L30.8479 53.9953L30.8479 41.2579L21.0771 35.1661L23.8688 44.3038L15.7729 53.9953ZM33.6396 11.0759C32.1042 11.0759 30.7898 10.5337 29.6964 9.44917C28.603 8.36465 28.0563 7.06092 28.0563 5.53797C28.0563 4.01503 28.603 2.7113 29.6964 1.62678C30.7898 0.54226 32.1042 0 33.6396 0C35.175 0 36.4894 0.54226 37.5828 1.62678C38.6762 2.7113 39.2229 4.01503 39.2229 5.53797C39.2229 7.06092 38.6762 8.36465 37.5828 9.44917C36.4894 10.5337 35.175 11.0759 33.6396 11.0759Z" fill="white"/>
</svg>
