<svg width="48" height="64" viewBox="0 0 48 64" fill="none" xmlns="http://www.w3.org/2000/svg">
<path d="M12.0042 63.4633C11.4458 63.4633 10.9573 63.2563 10.5385 62.8424C10.1198 62.4285 9.91042 61.9457 9.91042 61.3938C9.91042 60.8419 10.1198 60.3591 10.5385 59.9452C10.9573 59.5313 11.4458 59.3243 12.0042 59.3243C12.5625 59.3243 13.051 59.5313 13.4698 59.9452C13.8885 60.3591 14.0979 60.8419 14.0979 61.3938C14.0979 61.9457 13.8885 62.4285 13.4698 62.8424C13.051 63.2563 12.5625 63.4633 12.0042 63.4633ZM35.7333 63.4633C35.175 63.4633 34.6865 63.2563 34.2677 62.8424C33.849 62.4285 33.6396 61.9457 33.6396 61.3938C33.6396 60.8419 33.849 60.3591 34.2677 59.9452C34.6865 59.5313 35.175 59.3243 35.7333 59.3243C36.2917 59.3243 36.7802 59.5313 37.199 59.9452C37.6177 60.3591 37.8271 60.8419 37.8271 61.3938C37.8271 61.9457 37.6177 62.4285 37.199 62.8424C36.7802 63.2563 36.2917 63.4633 35.7333 63.4633ZM10.6083 57.9447C8.51458 57.9447 6.58368 57.4963 4.81563 56.5996C3.04757 55.7028 1.58194 54.4956 0.41875 52.978C0.279167 52.7481 0.174479 52.5411 0.104688 52.3572C0.0348958 52.1732 0 51.9663 0 51.7363C0 51.1845 0.186111 50.7016 0.558333 50.2877C0.930556 49.8738 1.44236 49.6669 2.09375 49.6669C2.46597 49.6669 2.78004 49.7359 3.03594 49.8738C3.29184 50.0118 3.53611 50.2187 3.76875 50.4947C4.32708 51.2765 5.03663 51.9318 5.8974 52.4607C6.75816 52.9895 7.67708 53.3689 8.65417 53.5989L17.3781 43.1826L13.6792 31.7316C13.4465 30.9498 13.3767 30.168 13.4698 29.3862C13.5628 28.6045 13.8188 27.8686 14.2375 27.1788L20.9375 16.5556L14.3771 16.5556L9.07292 24.9714L4.32708 22.0742L11.3063 11.0371L27.2188 11.0371C28.475 11.0371 29.487 11.382 30.2547 12.0718C31.0224 12.7616 31.5458 13.4055 31.825 14.0033L33.2906 17.3144C34.2212 19.5218 35.7217 21.3269 37.7922 22.7295C39.8627 24.1321 42.2007 24.8334 44.8063 24.8334L44.8063 30.352C41.5493 30.352 38.5715 29.5817 35.8729 28.0411C33.1743 26.5005 31.0108 24.4655 29.3823 21.9362L24.3573 29.8691L36.4313 37.2502V53.8058H37.2688C38.6181 53.8058 39.8743 53.5069 41.0375 52.909C42.2007 52.3112 43.1778 51.5064 43.9688 50.4947C44.2014 50.2187 44.4457 50.0118 44.7016 49.8738C44.9575 49.7359 45.2715 49.6669 45.6438 49.6669C46.2486 49.6669 46.7488 49.8738 47.1443 50.2877C47.5398 50.7016 47.7375 51.1845 47.7375 51.7363C47.7375 51.9663 47.7026 52.1732 47.6328 52.3572C47.563 52.5411 47.4583 52.7481 47.3188 52.978C46.1556 54.4956 44.7132 55.7028 42.9917 56.5996C41.2701 57.4963 39.3625 57.9447 37.2688 57.9447L10.6083 57.9447ZM15.7729 53.8058L30.8479 53.8058L30.8479 41.1132L21.0771 35.0428L23.8688 44.1483L15.7729 53.8058ZM33.6396 11.0371C32.1042 11.0371 30.7898 10.4967 29.6964 9.41602C28.603 8.3353 28.0563 7.03614 28.0563 5.51854C28.0563 4.00094 28.603 2.70179 29.6964 1.62107C30.7898 0.540357 32.1042 0 33.6396 0C35.175 0 36.4894 0.540357 37.5828 1.62107C38.6762 2.70179 39.2229 4.00094 39.2229 5.51854C39.2229 7.03614 38.6762 8.3353 37.5828 9.41602C36.4894 10.4967 35.175 11.0371 33.6396 11.0371Z" fill="black"/>
</svg>
