<svg width="25" height="26" viewBox="0 0 25 26" fill="none" xmlns="http://www.w3.org/2000/svg">
<path d="M21.875 10.875C21.875 18.1667 12.5 24.4167 12.5 24.4167C12.5 24.4167 3.125 18.1667 3.125 10.875C3.125 8.3886 4.11272 6.00403 5.87087 4.24587C7.62903 2.48772 10.0136 1.5 12.5 1.5C14.9864 1.5 17.371 2.48772 19.1291 4.24587C20.8873 6.00403 21.875 8.3886 21.875 10.875Z" stroke="black" stroke-width="3" stroke-linecap="round" stroke-linejoin="round"/>
<path d="M12.5 14C14.2259 14 15.625 12.6009 15.625 10.875C15.625 9.14911 14.2259 7.75 12.5 7.75C10.7741 7.75 9.375 9.14911 9.375 10.875C9.375 12.6009 10.7741 14 12.5 14Z" stroke="black" stroke-width="3" stroke-linecap="round" stroke-linejoin="round"/>
</svg>
