<?xml version="1.0" standalone="no"?>
<!DOCTYPE svg PUBLIC "-//W3C//DTD SVG 20010904//EN"
 "http://www.w3.org/TR/2001/REC-SVG-20010904/DTD/svg10.dtd">
<svg version="1.0" xmlns="http://www.w3.org/2000/svg"
 width="666.000000pt" height="375.000000pt" viewBox="0 0 666.000000 375.000000"
 preserveAspectRatio="xMidYMid meet">

<g transform="translate(0.000000,375.000000) scale(0.100000,-0.100000)"
fill="#000000" stroke="none">
<path d="M2245 2239 c-139 -29 -193 -46 -388 -119 -60 -22 -119 -40 -133 -40
-15 0 -24 -6 -24 -15 0 -23 49 -19 137 11 43 15 83 30 88 34 18 13 167 58 275
85 146 35 200 33 200 -7 0 -25 -99 -124 -247 -247 -71 -59 -113 -100 -113
-112 0 -29 35 -24 141 21 52 23 123 53 159 67 36 14 83 33 105 43 131 57 403
128 558 146 52 6 73 17 46 26 -19 6 -214 -13 -223 -23 -6 -5 -20 -9 -33 -9
-12 0 -46 -6 -75 -14 -69 -18 -360 -116 -373 -126 -5 -4 -30 -15 -55 -24 -25
-10 -66 -27 -92 -37 -27 -10 -48 -17 -48 -15 0 3 42 39 93 82 50 42 105 90
122 107 77 76 95 132 53 161 -25 18 -106 20 -173 5z"/>
<path d="M4390 2199 c-25 -5 -115 -15 -200 -24 -374 -39 -802 -137 -856 -196
-16 -17 -16 -19 0 -25 10 -4 34 2 54 13 20 11 57 25 82 32 25 8 56 17 70 22
33 11 225 56 270 63 19 3 88 14 152 25 64 11 172 25 239 31 68 6 126 13 129
15 3 1 57 8 120 14 182 18 210 22 210 32 0 11 -207 9 -270 -2z"/>
<path d="M4470 2055 c-47 -8 -112 -20 -145 -29 -33 -8 -96 -24 -140 -35 -125
-32 -270 -72 -274 -77 -3 -2 -19 10 -38 27 -58 57 -164 52 -273 -13 -30 -18
-56 -41 -58 -51 -6 -33 27 -57 77 -57 56 0 43 -16 -19 -23 -25 -2 -97 -14
-160 -27 -204 -39 -208 -38 -104 14 108 54 174 112 174 155 0 43 -17 47 -33 9
-26 -62 -147 -138 -322 -203 -109 -41 -630 -210 -752 -244 -44 -12 -60 -41
-24 -41 11 0 118 31 238 69 327 103 430 129 773 195 189 37 247 46 470 75 173
23 488 47 497 37 10 -9 -16 -26 -167 -109 -131 -71 -192 -102 -255 -128 l-30
-13 27 -4 c30 -4 56 6 203 78 130 64 208 108 275 155 l54 38 226 4 c243 4 290
8 290 25 0 7 -69 9 -225 6 -124 -2 -225 -3 -225 -1 0 1 47 25 105 54 111 53
133 75 115 109 -10 18 -20 20 -103 19 -51 -1 -130 -7 -177 -14z m228 -27 c-5
-15 -94 -60 -183 -94 -38 -15 -75 -33 -81 -40 -7 -9 -31 -14 -60 -14 -77 0
-409 -29 -523 -46 -107 -16 -141 -13 -74 5 21 6 79 23 128 37 50 14 104 30
120 34 17 4 68 19 115 33 71 21 323 77 410 90 60 10 152 7 148 -5z m-883 -92
c46 -20 44 -33 -7 -46 -24 -6 -56 -15 -73 -20 -80 -23 -145 -23 -145 0 0 17
135 77 178 79 7 1 28 -6 47 -13z"/>
<path d="M3105 1953 c-75 -18 -228 -66 -277 -87 -38 -16 -51 -9 -23 14 16 13
21 50 7 50 -15 0 -51 -45 -63 -78 -6 -18 -16 -32 -22 -32 -12 0 -305 -146
-424 -211 -40 -22 -63 -40 -63 -51 0 -10 5 -18 10 -18 6 0 63 30 128 67 64 36
178 95 252 131 124 59 138 63 172 55 46 -12 72 1 44 22 -18 14 -18 15 10 25
105 41 239 79 323 94 76 13 96 37 29 35 -23 -1 -70 -8 -103 -16z"/>
</g>
</svg>
