<svg width="1920" height="454" viewBox="0 0 1920 454" fill="none" xmlns="http://www.w3.org/2000/svg">
<path d="M1968.79 303.083L-27.7229 64.8389L-31.3775 149.913L1965.14 388.157L1968.79 303.083Z" fill="#FFC404"/>
<mask id="mask0_70_148" style="mask-type:luminance" maskUnits="userSpaceOnUse" x="-32" y="64" width="2001" height="325">
<path d="M1968.79 312.096L-28.2834 64.8389L-31.3775 140.9L1965.7 388.157L1968.79 312.096Z" fill="white"/>
</mask>
<g mask="url(#mask0_70_148)">
<path d="M-62.619 166.143L-117.607 157.333L-20.6629 70.6937L34.3247 79.5034L-62.619 166.143Z" fill="black"/>
<path d="M56.5514 178.893L1.56383 170.083L98.5075 83.4437L153.495 92.2534L56.5514 178.893Z" fill="black"/>
<path d="M175.722 191.643L120.734 182.833L217.678 96.1937L272.666 105.003L175.722 191.643Z" fill="black"/>
<path d="M294.892 204.39L239.905 195.581L336.848 108.941L391.836 117.75L294.892 204.39Z" fill="black"/>
<path d="M414.063 217.136L359.07 208.325L456.013 121.686L511.007 130.496L414.063 217.136Z" fill="black"/>
<path d="M533.233 229.886L478.24 221.075L575.184 134.436L630.177 143.246L533.233 229.886Z" fill="black"/>
<path d="M652.404 242.633L597.41 233.823L694.354 147.183L749.342 155.993L652.404 242.633Z" fill="black"/>
<path d="M771.568 255.382L716.581 246.573L813.525 159.933L868.512 168.743L771.568 255.382Z" fill="black"/>
<path d="M890.739 268.131L835.751 259.322L932.695 172.682L987.683 181.492L890.739 268.131Z" fill="black"/>
<path d="M1009.91 280.877L954.922 272.067L1051.87 185.427L1106.85 194.237L1009.91 280.877Z" fill="black"/>
<path d="M1129.08 293.625L1074.09 284.815L1171.04 198.175L1226.02 206.985L1129.08 293.625Z" fill="black"/>
<path d="M1248.25 306.374L1193.26 297.564L1290.21 210.924L1345.19 219.734L1248.25 306.374Z" fill="black"/>
<path d="M1367.42 319.124L1312.43 310.314L1409.38 223.674L1464.36 232.484L1367.42 319.124Z" fill="black"/>
<path d="M1486.59 331.869L1431.6 323.059L1528.55 236.419L1583.54 245.229L1486.59 331.869Z" fill="black"/>
<path d="M1605.76 344.616L1550.77 335.806L1647.72 249.166L1702.71 257.976L1605.76 344.616Z" fill="black"/>
<path d="M1724.93 357.366L1669.94 348.556L1766.89 261.916L1821.88 270.726L1724.93 357.366Z" fill="black"/>
<path d="M1844.1 370.114L1789.11 361.303L1886.06 274.664L1941.05 283.474L1844.1 370.114Z" fill="black"/>
<path d="M1963.27 382.864L1908.28 374.053L2005.22 287.413L2060.22 296.224L1963.27 382.864Z" fill="black"/>
</g>
<path d="M1944.81 53.109L-49.5002 317.706L-35.1236 400.834L1959.19 136.237L1944.81 53.109Z" fill="#FFC404"/>
<mask id="mask1_70_148" style="mask-type:luminance" maskUnits="userSpaceOnUse" x="-50" y="60" width="2010" height="334">
<path d="M1946.56 60.7857L-49.991 318.242L-36.873 393.158L1959.68 135.701L1946.56 60.7857Z" fill="white"/>
</mask>
<g mask="url(#mask1_70_148)">
<path d="M-62.6536 420.916L-118.218 426.864L-40.9769 316.995L14.5871 311.046L-62.6536 420.916Z" fill="black"/>
<path d="M56.0824 404.17L0.518361 410.118L77.759 300.249L133.323 294.3L56.0824 404.17Z" fill="black"/>
<path d="M174.818 387.425L119.254 393.373L196.495 283.503L252.059 277.555L174.818 387.425Z" fill="black"/>
<path d="M293.554 370.678L237.99 376.626L315.23 266.756L370.794 260.808L293.554 370.678Z" fill="black"/>
<path d="M412.289 353.929L356.719 359.878L433.96 250.008L489.53 244.059L412.289 353.929Z" fill="black"/>
<path d="M531.025 337.184L475.456 343.133L552.696 233.263L608.266 227.314L531.025 337.184Z" fill="black"/>
<path d="M649.761 320.436L594.191 326.385L671.432 216.515L726.996 210.567L649.761 320.436Z" fill="black"/>
<path d="M768.491 303.691L712.927 309.64L790.168 199.77L845.732 193.822L768.491 303.691Z" fill="black"/>
<path d="M887.227 286.946L831.663 292.895L908.904 183.025L964.468 177.076L887.227 286.946Z" fill="black"/>
<path d="M1005.96 270.196L950.398 276.145L1027.64 166.275L1083.2 160.326L1005.96 270.196Z" fill="black"/>
<path d="M1124.7 253.449L1069.13 259.397L1146.37 149.528L1201.94 143.579L1124.7 253.449Z" fill="black"/>
<path d="M1243.43 236.704L1187.87 242.652L1265.11 132.783L1320.67 126.834L1243.43 236.704Z" fill="black"/>
<path d="M1362.17 219.959L1306.61 225.907L1383.85 116.038L1439.41 110.089L1362.17 219.959Z" fill="black"/>
<path d="M1480.91 203.209L1425.34 209.157L1502.58 99.2876L1558.15 93.3391L1480.91 203.209Z" fill="black"/>
<path d="M1599.64 186.462L1544.08 192.41L1621.32 82.5405L1676.88 76.5921L1599.64 186.462Z" fill="black"/>
<path d="M1718.38 169.717L1662.81 175.665L1740.05 65.7954L1795.62 59.847L1718.38 169.717Z" fill="black"/>
<path d="M1837.11 152.97L1781.54 158.919L1858.79 49.0487L1914.35 43.1002L1837.11 152.97Z" fill="black"/>
<path d="M1955.85 136.224L1900.28 142.173L1977.52 32.3032L2033.09 26.3541L1955.85 136.224Z" fill="black"/>
</g>
</svg>
